<svg width="1024" height="1024" viewBox="0 0 1024 1024" fill="none" xmlns="http://www.w3.org/2000/svg">
<g clip-path="url(#clip0_2092_27)">
<rect width="1024" height="1024" rx="180" fill="#A19D9D"/>
<rect x="-38" y="-24" width="1098" height="1085" fill="#443007"/>
<circle cx="512" cy="1058" r="650" fill="url(#paint0_linear_2092_27)" fill-opacity="0.9"/>
<circle cx="313.25" cy="243.25" r="106.25" fill="url(#paint1_linear_2092_27)"/>
<circle cx="279.5" cy="252" r="62.5" fill="url(#paint2_linear_2092_27)"/>
<circle cx="725.75" cy="243.25" r="106.25" fill="url(#paint3_linear_2092_27)"/>
<circle cx="702" cy="223.25" r="62.5" fill="url(#paint4_linear_2092_27)"/>
<circle cx="514.5" cy="535.75" r="375" fill="url(#paint5_linear_2092_27)"/>
<path d="M622 460.038C662 483.133 662 540.868 622 563.962L502 633.244C462 656.338 412 627.47 412 581.282L412 442.718C412 396.53 462 367.662 502 390.756L622 460.038Z" fill="url(#paint6_linear_2092_27)"/>
<path d="M558.305 520.75C546.87 529.196 530.36 534.5 512 534.5C493.64 534.5 477.13 529.196 465.695 520.75H558.305Z" fill="#D9D9D9"/>
<circle cx="512" cy="2200" r="1500" fill="url(#paint7_linear_2092_27)"/>
</g>
<defs>
<linearGradient id="paint0_linear_2092_27" x1="512" y1="408" x2="512" y2="1708" gradientUnits="userSpaceOnUse">
<stop stop-color="#E9B5B5"/>
<stop offset="1" stop-color="#836666"/>
</linearGradient>
<linearGradient id="paint1_linear_2092_27" x1="313.25" y1="137" x2="143.875" y2="399.5" gradientUnits="userSpaceOnUse">
<stop stop-color="#F1C6C6"/>
<stop offset="1" stop-color="#CB9292"/>
</linearGradient>
<linearGradient id="paint2_linear_2092_27" x1="250.679" y1="241.883" x2="380.747" y2="245.205" gradientUnits="userSpaceOnUse">
<stop stop-color="#E9B5B5"/>
<stop offset="1" stop-color="#836666"/>
</linearGradient>
<linearGradient id="paint3_linear_2092_27" x1="725.75" y1="137" x2="556.375" y2="399.5" gradientUnits="userSpaceOnUse">
<stop stop-color="#F1C6C6"/>
<stop offset="1" stop-color="#CB9292"/>
</linearGradient>
<linearGradient id="paint4_linear_2092_27" x1="702" y1="160.75" x2="774.426" y2="268.838" gradientUnits="userSpaceOnUse">
<stop stop-color="#E9B5B5"/>
<stop offset="1" stop-color="#836666"/>
</linearGradient>
<linearGradient id="paint5_linear_2092_27" x1="514.5" y1="160.75" x2="-83.2941" y2="1087.22" gradientUnits="userSpaceOnUse">
<stop stop-color="#F1C6C6"/>
<stop offset="1" stop-color="#CB9292"/>
</linearGradient>
<linearGradient id="paint6_linear_2092_27" x1="512" y1="312" x2="512" y2="712" gradientUnits="userSpaceOnUse">
<stop/>
<stop offset="1" stop-color="#666666"/>
</linearGradient>
<linearGradient id="paint7_linear_2092_27" x1="512" y1="700" x2="512" y2="3700" gradientUnits="userSpaceOnUse">
<stop stop-color="#FDD8D7"/>
<stop offset="0.0432692" stop-color="#EAE8E8"/>
</linearGradient>
<clipPath id="clip0_2092_27">
<rect width="1024" height="1024" rx="180" fill="white"/>
</clipPath>
</defs>
</svg>
