<svg width="800" height="800" viewBox="0 0 800 800" fill="none" xmlns="http://www.w3.org/2000/svg">
<g clip-path="url(#clip0_2050_21)">
<path d="M639.002 195.275C746.702 302.975 765.73 465.767 696.089 592.935C686.835 609.833 683.355 629.581 688.657 648.103C702.764 697.378 657.192 742.95 607.917 728.842L603.148 727.477C584.999 722.281 565.658 725.189 548.682 733.447C423.801 794.188 269 772.704 165.286 668.991C61.8529 565.557 40.204 411.31 100.34 286.605C108.612 269.451 111.523 249.941 106.282 231.632L104.896 226.793C90.6193 176.925 136.739 130.805 186.607 145.082C205.297 150.432 225.221 146.942 242.303 137.661C369.33 68.6413 531.574 87.8467 639.002 195.275Z" fill="url(#paint0_linear_2050_21)"/>
<path d="M396.935 40.532C379.624 91.7268 341.931 135.882 288.798 159.891C235.666 183.9 177.617 183.007 127.755 162.165C145.066 110.971 182.76 66.8164 235.892 42.8076C289.024 18.799 347.073 19.6902 396.935 40.532Z" fill="url(#paint1_linear_2050_21)"/>
<path d="M507.471 388.703C540.805 407.948 540.805 456.061 507.471 475.306L386.769 544.993C353.436 564.238 311.769 540.182 311.769 501.692L311.769 362.317C311.769 323.827 353.436 299.771 386.769 319.016L507.471 388.703Z" fill="white"/>
</g>
<defs>
<linearGradient id="paint0_linear_2050_21" x1="638.833" y1="195.106" x2="165.117" y2="668.822" gradientUnits="userSpaceOnUse">
<stop stop-color="#FEA900"/>
<stop offset="1" stop-color="#FF7307"/>
</linearGradient>
<linearGradient id="paint1_linear_2050_21" x1="384.52" y1="44.5627" x2="121.713" y2="165.814" gradientUnits="userSpaceOnUse">
<stop stop-color="#A4D64E"/>
<stop offset="1" stop-color="#75B800"/>
</linearGradient>
<clipPath id="clip0_2050_21">
<rect width="800" height="800" rx="150" fill="white"/>
</clipPath>
</defs>
</svg>
