<svg width="1024" height="1024" viewBox="0 0 1024 1024" fill="none" xmlns="http://www.w3.org/2000/svg">
<g clip-path="url(#clip0_2096_2)">
<rect width="1024" height="1024" rx="180" fill="#A19D9D"/>
<rect x="-38" y="-24" width="1098" height="1085" fill="#443007"/>
<circle cx="512" cy="1058" r="650" fill="url(#paint0_linear_2096_2)" fill-opacity="0.9"/>
<circle cx="313.25" cy="243.25" r="106.25" fill="url(#paint1_linear_2096_2)"/>
<circle cx="279.5" cy="252" r="62.5" fill="url(#paint2_linear_2096_2)"/>
<circle cx="725.75" cy="243.25" r="106.25" fill="url(#paint3_linear_2096_2)"/>
<circle cx="702" cy="223.25" r="62.5" fill="url(#paint4_linear_2096_2)"/>
<circle cx="514.5" cy="535.75" r="375" fill="url(#paint5_linear_2096_2)"/>
<path d="M622 460.038C662 483.133 662 540.868 622 563.962L502 633.244C462 656.338 412 627.47 412 581.282L412 442.718C412 396.53 462 367.662 502 390.756L622 460.038Z" fill="url(#paint6_linear_2096_2)"/>
<path d="M558.305 520.75C546.87 529.196 530.36 534.5 512 534.5C493.64 534.5 477.13 529.196 465.695 520.75H558.305Z" fill="#D9D9D9"/>
<circle cx="512" cy="2200" r="1500" fill="url(#paint7_linear_2096_2)"/>
<path d="M219.8 808.1H274.4V818.9H219.8V808.1ZM243.05 776H254V913.85H243.05V776ZM242.45 814.85L249.8 817.25C248.5 823.25 246.85 829.5 244.85 836C242.95 842.5 240.75 848.85 238.25 855.05C235.85 861.25 233.25 867 230.45 872.3C227.75 877.6 224.95 882.15 222.05 885.95C221.45 884.45 220.55 882.75 219.35 880.85C218.15 878.85 217.1 877.15 216.2 875.75C218.9 872.35 221.55 868.3 224.15 863.6C226.85 858.9 229.35 853.8 231.65 848.3C234.05 842.8 236.15 837.2 237.95 831.5C239.85 825.8 241.35 820.25 242.45 814.85ZM252.95 831.35C253.95 832.35 255.45 834.1 257.45 836.6C259.55 839.1 261.75 841.8 264.05 844.7C266.45 847.6 268.65 850.3 270.65 852.8C272.65 855.2 274.05 856.95 274.85 858.05L267.8 867.05C266.9 865.15 265.55 862.8 263.75 860C261.95 857.2 259.95 854.3 257.75 851.3C255.65 848.3 253.65 845.5 251.75 842.9C249.95 840.3 248.45 838.2 247.25 836.6L252.95 831.35ZM271.7 783.95H331.55V794.6H271.7V783.95ZM327.95 783.95H329.15L330.95 783.5L338.75 784.55C338.15 789.15 337.4 794.15 336.5 799.55C335.7 804.85 334.8 810.25 333.8 815.75C332.9 821.15 331.95 826.2 330.95 830.9L320.6 829.7C321.5 824.9 322.45 819.75 323.45 814.25C324.45 808.65 325.35 803.3 326.15 798.2C326.95 793 327.55 788.7 327.95 785.3V783.95ZM285.95 827.15H345.95V837.2H284L285.95 827.15ZM341.9 827.15H343.85L345.95 826.7L353 829.1C349.8 844.1 344.95 857.15 338.45 868.25C332.05 879.25 324.45 888.55 315.65 896.15C306.85 903.65 297.25 909.6 286.85 914C286.25 912.7 285.3 911.15 284 909.35C282.7 907.55 281.45 906.15 280.25 905.15C289.75 901.55 298.65 896.3 306.95 889.4C315.25 882.4 322.45 873.85 328.55 863.75C334.75 853.55 339.2 842.05 341.9 829.25V827.15ZM283.25 788L294.2 788.3C294 802.3 293.5 815.4 292.7 827.6C292 839.8 290.8 851.1 289.1 861.5C287.4 871.9 284.9 881.5 281.6 890.3C278.4 899 274.15 906.95 268.85 914.15C268.35 913.55 267.5 912.8 266.3 911.9C265.1 911 263.85 910.1 262.55 909.2C261.35 908.4 260.3 907.7 259.4 907.1C266.3 898.6 271.45 888.4 274.85 876.5C278.25 864.6 280.5 851.25 281.6 836.45C282.7 821.55 283.25 805.4 283.25 788ZM297.05 834.2C300.35 844.9 304.8 854.9 310.4 864.2C316.1 873.4 322.9 881.5 330.8 888.5C338.7 895.4 347.6 900.7 357.5 904.4C356.7 905.2 355.8 906.15 354.8 907.25C353.8 908.35 352.85 909.5 351.95 910.7C351.05 911.9 350.35 913 349.85 914C339.65 909.7 330.6 903.75 322.7 896.15C314.8 888.45 308 879.55 302.3 869.45C296.6 859.25 292 848.2 288.5 836.3L297.05 834.2ZM390.35 789.2H435.95V798.65H390.35V789.2ZM447.05 789.35H501.5V798.8H447.05V789.35ZM393.05 775.55L403.7 778.25C401.8 783.55 399.55 788.65 396.95 793.55C394.35 798.45 391.45 803.05 388.25 807.35C385.15 811.55 381.95 815.3 378.65 818.6C377.95 817.9 377 817.2 375.8 816.5C374.7 815.7 373.55 814.95 372.35 814.25C371.25 813.45 370.25 812.8 369.35 812.3C374.35 807.9 378.9 802.45 383 795.95C387.2 789.45 390.55 782.65 393.05 775.55ZM451.4 775.85L462.2 778.25C460 785.55 457.05 792.5 453.35 799.1C449.65 805.6 445.7 811.1 441.5 815.6C440.9 815 440.05 814.3 438.95 813.5C437.85 812.7 436.7 811.9 435.5 811.1C434.3 810.3 433.2 809.7 432.2 809.3C436.5 805.2 440.3 800.25 443.6 794.45C447 788.55 449.6 782.35 451.4 775.85ZM401.6 796.25L410.9 792.8C413 795.9 415.05 799.4 417.05 803.3C419.15 807.1 420.65 810.35 421.55 813.05L411.5 817.1C410.7 814.3 409.35 810.95 407.45 807.05C405.55 803.05 403.6 799.45 401.6 796.25ZM463.1 796.1L472.4 792.2C474.9 795.5 477.4 799.15 479.9 803.15C482.4 807.15 484.25 810.6 485.45 813.5L475.7 817.85C474.7 814.95 472.95 811.45 470.45 807.35C468.05 803.15 465.6 799.4 463.1 796.1ZM414.65 865.25H460.1V873.65H414.65V865.25ZM378.05 833.9H389V913.7H378.05V833.9ZM414.5 821.3H491V831.5H414.5V821.3ZM384.8 821.15L393.05 815.45C396.25 818.15 399.5 821.25 402.8 824.75C406.1 828.15 408.6 831.2 410.3 833.9L401.6 840.05C400 837.45 397.55 834.35 394.25 830.75C391.05 827.15 387.9 823.95 384.8 821.15ZM485 821.3H496.1V900.5C496.1 903.6 495.7 905.95 494.9 907.55C494.1 909.25 492.55 910.55 490.25 911.45C487.95 912.25 484.9 912.7 481.1 912.8C477.3 913 472.6 913.1 467 913.1C466.8 911.6 466.35 909.9 465.65 908C464.95 906.2 464.2 904.6 463.4 903.2C466.2 903.2 468.85 903.25 471.35 903.35C473.95 903.45 476.2 903.45 478.1 903.35C480 903.35 481.3 903.35 482 903.35C483.2 903.25 484 903 484.4 902.6C484.8 902.2 485 901.45 485 900.35V821.3ZM419.75 852.65V887.15H455V852.65H419.75ZM410 843.95H465.2V895.85H410V843.95ZM578.15 782.6H654.5V792.95H578.15V782.6ZM571.4 900.2H656V910.7H571.4V900.2ZM588.65 864.5L598.25 862.1C599.55 865.5 600.75 869.15 601.85 873.05C603.05 876.85 604.05 880.6 604.85 884.3C605.65 887.9 606.2 891.15 606.5 894.05L596.15 896.6C595.95 893.7 595.45 890.4 594.65 886.7C593.95 883 593.05 879.2 591.95 875.3C590.95 871.4 589.85 867.8 588.65 864.5ZM632.3 861.2L643.7 863.9C642.4 867.6 641 871.55 639.5 875.75C638.1 879.85 636.7 883.8 635.3 887.6C634 891.4 632.7 894.7 631.4 897.5L621.8 895.1C623.1 892.2 624.4 888.75 625.7 884.75C627 880.75 628.25 876.7 629.45 872.6C630.65 868.5 631.6 864.7 632.3 861.2ZM594.65 819.65V846.05H637.4V819.65H594.65ZM584.15 809.45H648.2V855.95H584.15V809.45ZM546.05 801.35H557V831.05C557 837.15 556.6 843.85 555.8 851.15C555 858.35 553.5 865.65 551.3 873.05C549.1 880.45 545.9 887.6 541.7 894.5C537.6 901.4 532.15 907.7 525.35 913.4C524.85 912.6 524.1 911.65 523.1 910.55C522.2 909.55 521.25 908.55 520.25 907.55C519.25 906.65 518.35 905.95 517.55 905.45C523.95 900.15 529.05 894.4 532.85 888.2C536.65 881.9 539.5 875.45 541.4 868.85C543.3 862.15 544.55 855.6 545.15 849.2C545.75 842.7 546.05 836.6 546.05 830.9V801.35ZM532.4 795.5H576.8V805.85H532.4V795.5ZM518.6 836.15H578.45V846.8H518.6V836.15ZM553.7 855.8C554.7 856.7 556.05 858.1 557.75 860C559.55 861.9 561.5 864.05 563.6 866.45C565.8 868.85 567.95 871.3 570.05 873.8C572.15 876.2 574.05 878.4 575.75 880.4C577.45 882.3 578.65 883.7 579.35 884.6L572.15 893.9C570.85 891.9 569.05 889.45 566.75 886.55C564.55 883.55 562.2 880.45 559.7 877.25C557.2 874.05 554.75 871.1 552.35 868.4C550.05 865.6 548.2 863.4 546.8 861.8L553.7 855.8ZM533.75 776.6L544.4 778.55C543.2 785.05 541.7 791.45 539.9 797.75C538.2 803.95 536.2 809.75 533.9 815.15C531.7 820.45 529.25 825.2 526.55 829.4C525.95 828.9 525.05 828.3 523.85 827.6C522.65 826.9 521.4 826.25 520.1 825.65C518.9 824.95 517.8 824.4 516.8 824C521 818.2 524.5 811.1 527.3 802.7C530.1 794.3 532.25 785.6 533.75 776.6ZM762.95 793.7H773V876.8H762.95V793.7ZM788.9 778.85H799.4V900.65C799.4 903.85 798.95 906.3 798.05 908C797.25 909.8 795.85 911.15 793.85 912.05C791.85 912.95 789.15 913.5 785.75 913.7C782.45 914 778.2 914.15 773 914.15C772.8 912.75 772.35 911 771.65 908.9C771.05 906.8 770.35 905 769.55 903.5C773.25 903.6 776.65 903.65 779.75 903.65C782.85 903.75 784.9 903.75 785.9 903.65C787 903.55 787.75 903.3 788.15 902.9C788.65 902.5 788.9 901.75 788.9 900.65V778.85ZM684.5 783.65H747.35V821H684.5V810.95H736.7V793.7H684.5V783.65ZM678.8 783.65H689.6V816.65C689.6 822.85 689.4 829.8 689 837.5C688.6 845.2 687.9 853.15 686.9 861.35C685.9 869.55 684.4 877.6 682.4 885.5C680.5 893.4 678 900.65 674.9 907.25C674.3 906.45 673.45 905.45 672.35 904.25C671.35 903.15 670.3 902.05 669.2 900.95C668.1 899.85 667.2 899.1 666.5 898.7C669.4 892.5 671.65 885.85 673.25 878.75C674.85 871.65 676.05 864.45 676.85 857.15C677.65 849.85 678.15 842.75 678.35 835.85C678.65 828.85 678.8 822.45 678.8 816.65V783.65ZM684.5 837.2H753.8V847.4H684.5V837.2ZM715.55 818.75H725.6V870.05H715.55V818.75ZM692.15 864.35H748.4V912.65H738.2V874.1H701.9V913.1H692.15V864.35ZM696.35 896.75H743.75V906.5H696.35V896.75Z" fill="#443007"/>
</g>
<defs>
<linearGradient id="paint0_linear_2096_2" x1="512" y1="408" x2="512" y2="1708" gradientUnits="userSpaceOnUse">
<stop stop-color="#E9B5B5"/>
<stop offset="1" stop-color="#836666"/>
</linearGradient>
<linearGradient id="paint1_linear_2096_2" x1="313.25" y1="137" x2="143.875" y2="399.5" gradientUnits="userSpaceOnUse">
<stop stop-color="#F1C6C6"/>
<stop offset="1" stop-color="#CB9292"/>
</linearGradient>
<linearGradient id="paint2_linear_2096_2" x1="250.679" y1="241.883" x2="380.747" y2="245.205" gradientUnits="userSpaceOnUse">
<stop stop-color="#E9B5B5"/>
<stop offset="1" stop-color="#836666"/>
</linearGradient>
<linearGradient id="paint3_linear_2096_2" x1="725.75" y1="137" x2="556.375" y2="399.5" gradientUnits="userSpaceOnUse">
<stop stop-color="#F1C6C6"/>
<stop offset="1" stop-color="#CB9292"/>
</linearGradient>
<linearGradient id="paint4_linear_2096_2" x1="702" y1="160.75" x2="774.426" y2="268.838" gradientUnits="userSpaceOnUse">
<stop stop-color="#E9B5B5"/>
<stop offset="1" stop-color="#836666"/>
</linearGradient>
<linearGradient id="paint5_linear_2096_2" x1="514.5" y1="160.75" x2="-83.2941" y2="1087.22" gradientUnits="userSpaceOnUse">
<stop stop-color="#F1C6C6"/>
<stop offset="1" stop-color="#CB9292"/>
</linearGradient>
<linearGradient id="paint6_linear_2096_2" x1="512" y1="312" x2="512" y2="712" gradientUnits="userSpaceOnUse">
<stop/>
<stop offset="1" stop-color="#666666"/>
</linearGradient>
<linearGradient id="paint7_linear_2096_2" x1="512" y1="700" x2="512" y2="3700" gradientUnits="userSpaceOnUse">
<stop stop-color="#FDD8D7"/>
<stop offset="0.0432692" stop-color="#EAE8E8"/>
</linearGradient>
<clipPath id="clip0_2096_2">
<rect width="1024" height="1024" rx="180" fill="white"/>
</clipPath>
</defs>
</svg>
